<?xml version="1.0" encoding="UTF-8"?>
<!DOCTYPE svg PUBLIC "-//W3C//DTD SVG 1.1//EN" "http://www.w3.org/Graphics/SVG/1.1/DTD/svg11.dtd">
<svg xmlns="http://www.w3.org/2000/svg" version="1.1"
viewBox="0 0 12770.56 5573.88"
 xmlns:xlink="http://www.w3.org/1999/xlink">
 <defs>
  <style type="text/css">
   <![CDATA[
    .fil1 {fill:#FEFEFE;fill-rule:nonzero}
    .fil0 {fill:#EE741D;fill-rule:nonzero}
   ]]>
  </style>
 </defs>
 <g id="Слой_x0020_1">
  <polygon class="fil0" points="-0,5573.89 12798.78,5573.89 12798.78,-24.7 -0,-24.7 "/>
  <polygon class="fil1" points="6132.2,1735.63 4197.63,1735.63 4042.73,2242.35 4691.1,2242.35 4211.28,3812.14 4841.91,3812.14 5321.79,2242.35 5977.25,2242.35 "/>
  <path class="fil1" d="M1953.91 2058.08l-167.92 549.25c-74.73,244.5 61.35,425.23 302.3,425.23l786.59 0c31.87,0 57.53,31.9 46.71,67.32l-42.24 138.22c-11.57,37.85 -56.32,67.31 -87.91,67.31l-1236.54 0 -154.89 506.73 1594.41 0c175.84,0 326.04,-81.48 402.98,-333.1l159.52 -521.72c75.53,-247.22 -64.96,-424.41 -284.85,-424.41l-790.1 0c-43.75,0 -61.11,-31.9 -49.24,-70.86l42.28 -138.19c14.06,-46.05 46.61,-81.51 102.87,-81.51l1137.33 0 154.9 -506.72 -1509.38 0c-215.59,0 -350.46,138.07 -406.82,322.45z"/>
  <polygon class="fil1" points="10057.17,3305.41 10537.01,1735.63 9902.79,1735.63 9268.04,3812.14 11245.11,3812.14 11400.01,3305.41 "/>
  <polygon class="fil1" points="8867.42,1735.63 8623.69,2532.91 7868.99,2532.91 8112.72,1735.63 7506.83,1735.63 6872.08,3812.14 7477.94,3812.14 7720.61,3018.39 8475.31,3018.39 8232.67,3812.14 8855,3812.14 9489.83,1735.63 "/>
  <polygon class="fil1" points="6460.21,1735.63 5825.42,3812.14 6459.64,3812.14 7094.4,1735.63 "/>
 </g>
</svg>
